<svg width="21" height="23" viewBox="0 0 21 23" fill="none" xmlns="http://www.w3.org/2000/svg">
<path fill-rule="evenodd" clip-rule="evenodd" d="M2.88546 12.4221C2.20835 11.8059 2.64645 10.6793 3.56194 10.6825L3.98282 10.6839C4.5351 10.6858 4.98435 10.2397 4.98626 9.68737L5.01623 0.996553C5.01813 0.444272 5.46739 -0.00189835 6.01967 6.074e-06L14.3865 0.0288573C14.9388 0.0307617 15.3849 0.480018 15.383 1.0323L15.353 9.73089C15.3511 10.2789 15.7938 10.7246 16.3418 10.7265C17.2502 10.7297 17.6772 11.8505 17.0011 12.4572L10.5864 18.214C10.2044 18.5568 9.625 18.5548 9.24543 18.2094L2.88546 12.4221ZM0.996553 22.2063C0.444271 22.2044 -0.00189835 21.7551 6.074e-06 21.2028L0.0226403 14.6389C0.0245447 14.0867 0.473801 13.6405 1.02608 13.6424L1.27987 13.6433C1.83215 13.6452 2.27832 14.0944 2.27642 14.6467L2.26156 18.9569C2.25965 19.5092 2.70582 19.9585 3.2581 19.9604L17.0337 20.0079C17.586 20.0098 18.0352 19.5636 18.0371 19.0113L18.052 14.7011C18.0539 14.1488 18.5031 13.7027 19.0554 13.7046L19.7597 13.707C20.312 13.7089 20.7581 14.1581 20.7562 14.7104L20.7336 21.2743C20.7317 21.8266 20.2824 22.2728 19.7302 22.2709L0.996553 22.2063Z" fill="white"/>
</svg>
